<svg width="1200" height="520" viewBox="0 0 1200 520" fill="none" xmlns="http://www.w3.org/2000/svg" role="img" aria-labelledby="title desc">
  <title id="title">Public code landscape for kkn1125</title>
  <desc id="desc">Language usage across owned public GitHub repositories and recently updated repositories.</desc>
  <defs>
    <linearGradient id="background" x1="70" y1="20" x2="1130" y2="500" gradientUnits="userSpaceOnUse">
      <stop stop-color="#0B1220"/>
      <stop offset="1" stop-color="#111D33"/>
    </linearGradient>
    <linearGradient id="accent" x1="140" y1="0" x2="1060" y2="0" gradientUnits="userSpaceOnUse">
      <stop stop-color="#60A5FA"/>
      <stop offset="1" stop-color="#5EEAD4"/>
    </linearGradient>
    <style>
      .eyebrow { fill: #60A5FA; font: 700 15px Arial, sans-serif; letter-spacing: 3px; }
      .heading { fill: #F8FAFC; font: 700 32px Arial, sans-serif; }
      .stat { fill: #F8FAFC; font: 700 28px Arial, sans-serif; }
      .stat-label { fill: #94A3B8; font: 14px Arial, sans-serif; }
      .section { fill: #CBD5E1; font: 700 15px Arial, sans-serif; letter-spacing: 1px; }
      .label, .repo { fill: #E2E8F0; font: 15px Arial, sans-serif; }
      .value { fill: #94A3B8; font: 600 14px Arial, sans-serif; }
      .muted { fill: #64748B; font: 13px Arial, sans-serif; }
    </style>
    <clipPath id="language-bar"><rect x="140" y="203" width="920" height="18" rx="9"/></clipPath>
  </defs>

  <rect width="1200" height="520" rx="24" fill="url(#background)"/>
  <rect x="1" y="1" width="1198" height="518" rx="23" stroke="#334155" stroke-opacity="0.7"/>
  <rect x="76" y="64" width="8" height="94" rx="4" fill="url(#accent)"/>

  <text x="110" y="84" class="eyebrow">PUBLIC CODE LANDSCAPE</text>
  <text x="108" y="126" class="heading">What I have built with</text>
  <text x="108" y="154" class="muted">Owned public repositories · forks and archived projects excluded · updated 2026-07-20</text>

  <g transform="translate(720 76)">
    <text x="0" y="25" class="stat">205</text>
    <text x="0" y="50" class="stat-label">repositories</text>
    <text x="150" y="25" class="stat">35</text>
    <text x="150" y="50" class="stat-label">languages</text>
    <text x="300" y="25" class="stat">31.1 MB</text>
    <text x="300" y="50" class="stat-label">code indexed</text>
  </g>

  <g clip-path="url(#language-bar)">
    <rect x="140" y="203" width="274.96" height="18" fill="#F7DF1E"/>
<rect x="414.95809612127925" y="203" width="270.32" height="18" fill="#3178C6"/>
<rect x="685.2795482853965" y="203" width="130.78" height="18" fill="#555555"/>
<rect x="816.0628482564692" y="203" width="104.38" height="18" fill="#E34C26"/>
<rect x="920.4441748720881" y="203" width="46.16" height="18" fill="hsl(18 70% 62%)"/>
<rect x="966.6020619711095" y="203" width="24.31" height="18" fill="#563D7C"/>
<rect x="990.912767636816" y="203" width="16.65" height="18" fill="#3572A5"/>
  </g>

  <text x="140" y="256" class="section">LANGUAGE MIX</text>
  <text x="860" y="256" class="section">RECENTLY UPDATED</text>
  
        <circle cx="145" cy="263" r="5" fill="#F7DF1E"/>
        <text x="160" y="268" class="label">JavaScript</text>
        <text x="385" y="268" text-anchor="end" class="value">29.9%</text>
        <circle cx="145" cy="307" r="5" fill="#3178C6"/>
        <text x="160" y="312" class="label">TypeScript</text>
        <text x="385" y="312" text-anchor="end" class="value">29.4%</text>
        <circle cx="145" cy="351" r="5" fill="#555555"/>
        <text x="160" y="356" class="label">C</text>
        <text x="385" y="356" text-anchor="end" class="value">14.2%</text>
        <circle cx="145" cy="395" r="5" fill="#E34C26"/>
        <text x="160" y="400" class="label">HTML</text>
        <text x="385" y="400" text-anchor="end" class="value">11.3%</text>
        <circle cx="515" cy="263" r="5" fill="hsl(18 70% 62%)"/>
        <text x="530" y="268" class="label">MDX</text>
        <text x="755" y="268" text-anchor="end" class="value">5.0%</text>
        <circle cx="515" cy="307" r="5" fill="#563D7C"/>
        <text x="530" y="312" class="label">CSS</text>
        <text x="755" y="312" text-anchor="end" class="value">2.6%</text>
        <circle cx="515" cy="351" r="5" fill="#3572A5"/>
        <text x="530" y="356" class="label">Python</text>
        <text x="755" y="356" text-anchor="end" class="value">1.8%</text>
  
        <circle cx="865" cy="263" r="5" fill="#3572A5"/>
        <text x="880" y="268" class="repo">devkimson-skills</text>
        <text x="1100" y="268" text-anchor="end" class="muted">Python</text>
        <circle cx="865" cy="307" r="5" fill="#3178C6"/>
        <text x="880" y="312" class="repo">portfolio-renew</text>
        <text x="1100" y="312" text-anchor="end" class="muted">TypeScript</text>
        <circle cx="865" cy="351" r="5" fill="#3178C6"/>
        <text x="880" y="356" class="repo">vscode-extension-nestjs-…</text>
        <text x="1100" y="356" text-anchor="end" class="muted">TypeScript</text>
        <circle cx="865" cy="395" r="5" fill="#3178C6"/>
        <text x="880" y="400" class="repo">v0-meeting-date-coordina…</text>
        <text x="1100" y="400" text-anchor="end" class="muted">TypeScript</text>
        <circle cx="865" cy="439" r="5" fill="#3178C6"/>
        <text x="880" y="444" class="repo">solitaire-v3</text>
        <text x="1100" y="444" text-anchor="end" class="muted">TypeScript</text>

  <line x1="820" y1="246" x2="820" y2="448" stroke="#334155"/>
  <text x="140" y="482" class="muted">Based on GitHub Linguist language-byte statistics</text>
  <text x="1060" y="482" text-anchor="end" class="muted">github.com/kkn1125</text>
</svg>
